<svg width="41" height="48" viewBox="0 0 41 48" fill="none" xmlns="http://www.w3.org/2000/svg">
<path d="M26.6433 16.7512L25.836 37.7512M14.664 37.7512L13.8567 16.7512M37.1153 9.26117C37.9118 9.38251 38.7067 9.51162 39.5 9.64851M37.1153 9.26117L34.6233 41.6548C34.5216 42.9737 33.9258 44.2056 32.955 45.1041C31.9843 46.0026 30.7101 46.5016 29.3873 46.5012H11.1127C9.78989 46.5016 8.51572 46.0026 7.54495 45.1041C6.57418 44.2056 5.97837 42.9737 5.87667 41.6548L3.38467 9.26117M37.1153 9.26117C34.4224 8.85382 31.7155 8.54484 29 8.33484M3.38467 9.26117C2.58822 9.3794 1.79333 9.50773 1 9.64617M3.38467 9.26117C6.07761 8.85382 8.78453 8.54484 11.5 8.33484M29 8.33484V6.19751C29 3.44417 26.8767 1.14817 24.1233 1.06184C21.5418 0.979387 18.9582 0.979387 16.3767 1.06184C13.6233 1.14817 11.5 3.44651 11.5 6.19751V8.33484M29 8.33484C23.1752 7.88776 17.3248 7.88776 11.5 8.33484" stroke="white" stroke-width="1.5" stroke-linecap="round" stroke-linejoin="round"/>
</svg>
