<svg width="41" height="48" viewBox="0 0 41 48" fill="none" xmlns="http://www.w3.org/2000/svg">
<path d="M26.6433 17.2524L25.836 38.2524M14.664 38.2524L13.8567 17.2524M37.1153 9.76239C37.9118 9.88373 38.7067 10.0128 39.5 10.1497M37.1153 9.76239L34.6233 42.1561C34.5216 43.4749 33.9258 44.7068 32.955 45.6053C31.9843 46.5038 30.7101 47.0028 29.3873 47.0024H11.1127C9.78989 47.0028 8.51572 46.5038 7.54495 45.6053C6.57418 44.7068 5.97837 43.4749 5.87667 42.1561L3.38467 9.76239M37.1153 9.76239C34.4224 9.35505 31.7155 9.04606 29 8.83606M3.38467 9.76239C2.58822 9.88062 1.79333 10.0089 1 10.1474M3.38467 9.76239C6.07761 9.35505 8.78453 9.04606 11.5 8.83606M29 8.83606V6.69873C29 3.94539 26.8767 1.64939 24.1233 1.56306C21.5418 1.48061 18.9582 1.48061 16.3767 1.56306C13.6233 1.64939 11.5 3.94773 11.5 6.69873V8.83606M29 8.83606C23.1752 8.38898 17.3248 8.38898 11.5 8.83606" stroke="#FFC657" stroke-width="1.5" stroke-linecap="round" stroke-linejoin="round"/>
</svg>
