<svg width="987" height="762" viewBox="0 0 987 762" fill="none" xmlns="http://www.w3.org/2000/svg">
<path d="M400.295 15.9229C450.753 19.1725 501.251 17.9338 549.911 30.2116C600.531 42.9842 656.195 54.8019 691.511 89.4028C726.99 124.163 729.486 175.753 744.375 220.739C757.63 260.787 762.841 301.561 775.071 341.865C789.235 388.54 825.759 430.994 822.824 479.258C819.865 527.929 792.263 574.05 758.609 612.589C725.051 651.018 681.277 685.06 629.401 700.756C578.468 716.167 521.899 689.908 469.328 700.115C414.849 710.693 374.157 760.308 318.396 761.142C263.639 761.961 211.238 734.971 168.495 704.613C126.737 674.955 105.356 629.413 76.5974 589.409C49.3396 551.492 11.1104 517.37 2.08003 473.124C-6.89509 429.149 17.3573 385.926 26.0846 341.912C34.294 300.509 29.2916 255.758 52.453 219.078C75.5086 182.566 126.84 168.061 156.442 135.472C191.237 97.1648 193.47 34.182 242.015 10.3825C288.621 -12.4657 347.18 12.5023 400.295 15.9229Z" fill="url(#paint0_linear_831_911)"/>
<path d="M112.522 83.0333C112.522 99.4314 87.3596 112.725 56.3205 112.725C25.2813 112.725 0.119141 99.4314 0.119141 83.0333C0.119141 66.6353 53.382 0.852173 84.4211 0.852173C115.46 0.852173 112.522 66.6353 112.522 83.0333Z" fill="url(#paint1_linear_831_911)"/>
<path d="M986.293 487.234C986.293 518.084 949.107 512.659 932.91 512.659C916.713 512.659 903.582 518.084 903.582 487.234C903.582 456.384 916.713 431.375 932.91 431.375C949.107 431.375 986.293 456.384 986.293 487.234Z" fill="url(#paint2_linear_831_911)"/>
<defs>
<linearGradient id="paint0_linear_831_911" x1="116.596" y1="105.482" x2="676.211" y2="726.352" gradientUnits="userSpaceOnUse">
<stop stop-color="#FFC657"/>
<stop offset="0.43" stop-color="#BD5629"/>
<stop offset="0.95" stop-color="#272B4E"/>
</linearGradient>
<linearGradient id="paint1_linear_831_911" x1="56.3577" y1="0.852173" x2="56.3577" y2="112.725" gradientUnits="userSpaceOnUse">
<stop stop-color="#FFC657"/>
<stop offset="1" stop-color="#BD5629"/>
</linearGradient>
<linearGradient id="paint2_linear_831_911" x1="944.938" y1="431.375" x2="1039.01" y2="472.249" gradientUnits="userSpaceOnUse">
<stop stop-color="#BD5629"/>
<stop offset="0.9998" stop-color="#414783"/>
<stop offset="1" stop-color="#FFC657"/>
</linearGradient>
</defs>
</svg>
